<svg viewBox="0 0 60 60" xmlns="http://www.w3.org/2000/svg"><rect fill="#2b0f54" height="60" rx="10" width="60" class="fill-ffffff"></rect><path d="M46 28a5.993 5.993 0 0 0-1.183.118A9.94 9.94 0 0 0 32 20.478V40h14a6 6 0 0 0 0-12Z" fill="#2b0f54" class="fill-ffe1a0"></path><path d="M46 41.5H32a1.5 1.5 0 0 1-1.5-1.5V20.478a1.5 1.5 0 0 1 1.05-1.431 11.435 11.435 0 0 1 14.4 7.453H46a7.5 7.5 0 0 1 0 15Zm-12.5-3H46a4.5 4.5 0 0 0 0-9 4.395 4.395 0 0 0-.886.089 1.5 1.5 0 0 1-1.77-1.19 8.437 8.437 0 0 0-9.844-6.755ZM26 41.5a1.5 1.5 0 0 1-1.5-1.5V24a1.5 1.5 0 0 1 3 0v16a1.5 1.5 0 0 1-1.5 1.5ZM20 41.5a1.5 1.5 0 0 1-1.5-1.5V26a1.5 1.5 0 0 1 3 0v14a1.5 1.5 0 0 1-1.5 1.5ZM14 41.5a1.5 1.5 0 0 1-1.5-1.5V30a1.5 1.5 0 0 1 3 0v10a1.5 1.5 0 0 1-1.5 1.5ZM8 37.5A1.5 1.5 0 0 1 6.5 36v-2a1.5 1.5 0 0 1 3 0v2A1.5 1.5 0 0 1 8 37.5Z" fill="#ff8142" class="fill-f29580"></path><path d="M44.815 29.618a1.5 1.5 0 0 1-1.471-1.218 8.45 8.45 0 0 0-10.894-6.492 1.5 1.5 0 1 1-.9-2.861 11.441 11.441 0 0 1 14.741 8.79 1.5 1.5 0 0 1-1.191 1.755 1.613 1.613 0 0 1-.285.026Z" fill="#ffda45" class="fill-f2bf80"></path><path d="M52 35.5a1.5 1.5 0 0 1-1.5-1.5 4.505 4.505 0 0 0-4.5-4.5 4.395 4.395 0 0 0-.886.089 1.5 1.5 0 0 1-.593-2.942A7.5 7.5 0 0 1 53.5 34a1.5 1.5 0 0 1-1.5 1.5Z" fill="#ff8142" class="fill-f29580"></path></svg>